<svg xmlns="http://www.w3.org/2000/svg" width="440" height="440"><path fill="#070609" d="M0 0h440v440H0z"/><path fill="#080607" d="M0 0h104c11 13 11 13 11 15l3 1v2c-6.073.506-9.772-.958-15-4 3.407 3.975 7.328 5.868 12 8v2h2c.068 3.897.078 7.472-.492 11.336-1.203 8.681-.829 17.395.492 26.039 1.583 10.381 1.567 15.608-3.687 25.023-1.538 2.563-1.538 2.563-1.313 5.602l.805-2.371 1.07-3.067 1.055-3.058C116 81 116 81 118 80l-.035 3.656-.028 4.844-.025 2.398c-.02 5.13.349 10.025 1.088 15.102l3-1c-.498 3.735-.875 5.812-3 9-1.768 13.8 4.148 24.675 12.188 35.375 4.649 5.804 9.672 11.256 14.812 16.625l1.875 1.992c3.425 3.31 5.794 4.202 10.5 4.946 3.977.889 5.874 2.024 8.121 5.332 1.945 3.195 3.638 6.509 5.344 9.836 1.257 2.052 2.7 3.523 4.402 5.218 3.895 4.372 3.385 8.642 3.07 14.238q-.075 3.07-.14 6.141l-.092 3.154c-1.138 17.82-1.138 17.82 6.084 33.307L187 252a302 302 0 0 1 2.625 3.375c3.152 3.484 5.885 6.128 10.375 7.625-.656 5.087-2.87 9.397-5 14a898 898 0 0 0-3.117 7.008 186 186 0 0 1-2.133 4.617c-1.591 5.039-1.148 9.006 1.125 13.688 1.236 2.33 2.239 3.8 4.125 5.687-.305 3.481-.68 6.797-1.578 10.176-.83 3.765-.987 5.888 1.05 9.265a137 137 0 0 0 4.255 4.985c2.965 3.358 5.36 7.008 7.828 10.738L208 345h2c1.54-3.08 1.224-5.587 1-9-1.23-3.455-2.283-6.206-4.75-8.937-1.74-2.87-1.236-4.921-.77-8.16C206 317 206 317 208 314q3.156.212 6.313.438c1.171.08 2.343.162 3.55.246C221 315 221 315 224 316v2h-3l1 3.063c1.472 5.156 1.294 9.78 0 14.937-1.158 12.833.725 23.086 5.273 35.098 1.285 3.403 2.123 6.659 2.75 10.242.699 3.856 1.654 6.13 4.227 9.16 4.377 6.662 2.575 14.115 1.2 21.561-.565 2.435-1.4 4.673-2.45 6.939h-2v2h-2v-7l-.191 2.168c-1.005 8.172-3.755 17.778-9.809 23.832H0z"/><path fill="#B59D99" d="M122 29h2c1.607 3.215 1.057 6.436 1 10h3c.21 4.927-.392 9.06-1.555 13.844-.567 2.746-.588 5.362-.445 8.156l7-9 1 2c-1.448 2.597-3.098 5.021-4.75 7.492-1.492 2.376-1.492 2.376-.879 4.68L129 68q-.99 2.504-2 5c-.168 3.209-.168 3.209 0 6l1.137-1.941c3.074-5.196 6.14-10.3 9.863-15.059h2c-1.35 2.795-2.838 5.424-4.496 8.047l-1.443 2.312q-1.486 2.372-2.985 4.735C128.062 81.943 125.823 86.586 124 92h4l.68-2.105c1.622-3.556 3.908-6.283 6.445-9.207l1.418-1.667A751 751 0 0 1 140 75l2 1-1.645 2.23-2.167 2.957-2.145 2.918c-3.297 4.672-5.544 8.847-7.23 14.332l-1.043 3.31c-.76 3.213-.914 5.965-.77 9.253l4-2c4.688 5.692 8.195 11.17 11 18 2.015 4.292 4.314 8.11 7 12l-.875-3.25c-1.38-5.529-2.267-11.12-3.125-16.75-.15-.868-.3-1.735-.453-2.629l-.36-2.371-.332-2.062c.209-2.79 1.221-3.94 3.145-5.938 2.305-1.23 2.305-1.23 4.875-2.187l2.555-.981c2.511-.813 4.973-1.371 7.57-1.832l1 10q-2.654 1.008-5.312 2l-2.989 1.125C152 115 152 115 149 115c1.502 4.206 4.286 5.739 8 8l.188-2.375c.812-2.625.812-2.625 2.78-3.75 4.114-1.187 8.083-1.339 12.345-1.5l2.533-.117c2.05-.094 4.102-.177 6.154-.258l1-3-3.187-.437A143 143 0 0 1 170 110c0-2 0-2 1.438-3.687 3.887-1.992 7.37-1.056 11.562-.313l-.25-2.812c.25-3.188.25-3.188 1.938-4.876L187 97l2.563-1.75L192 94l3 1-3 4c3.866-3.766 7.436-7.707 10.938-11.812l1.599-1.869c3.246-3.817 6.372-7.684 9.28-11.768 1.272-1.668 2.67-3.1 4.183-4.551-.543 4.33-1.564 7.548-3.652 11.371l-1.604 2.99-1.681 3.076c-4.93 8.925-4.93 8.925-8.063 18.563l4 1 1.277-1.531 1.66-1.969 1.653-1.969L213 99h1c.185 9.41.185 9.41-1 14h2v13h-2c.924 3.056 1.767 5.655 3.563 8.313 1.735 3.244 1.745 5.348 1.625 9l-.083 3.238L218 149l1.816-1.398c4.096-3.004 8.155-4.862 13.184-5.602l.246-1.82c.995-2.877 2.239-3.49 4.816-5.055 3.874-2.43 7.51-5.017 11.114-7.828 1.867-1.328 3.752-2.327 5.824-3.297-.285 6.704-3.109 10.674-7 16l-2 3c1.95-.195 1.95-.195 4-1a118 118 0 0 0 2-4c1.736-2.555 3.54-5.055 5.344-7.562A44 44 0 0 0 261 124h4v-2l7-1v10l2.25-2.375C277 126 277 126 279.188 125c2.05-.876 2.05-.876 2.687-3.312 1.627-3.887 3.64-5.319 7.125-7.688 2.375.188 2.375.188 4 1l1-7h-2l-1 3c-.687-1.625-.687-1.625-1-4 1.438-3.25 1.438-3.25 3-6h1l1 5c3.276-14.444 3.276-14.444 6-29 2 1 2 1 3.113 3.887 1.286 4.93 1.14 9.863 1.075 14.926l-.002 2.888c-.045 7.017-.045 7.017-1.186 9.299-3.345 1.627-5.188 2-9 2v2h9c-.964 14.781-.964 14.781-2 21l-1.941.367c-4.028.78-8.007 1.56-11.934 2.758C285 137 285 137 281 137v3h9l1 3h3v-2h7l1 6 1.137-2.555 1.55-3.32c.5-1.09.998-2.181 1.512-3.305 2.019-3.161 3.242-3.862 6.801-4.82 1.18 9.285-2.258 16.743-6 25l-.957 2.158c-6.01 13.52-12.718 25.095-23.043 35.842l-2.61 2.836c-5.76 6.134-11.96 11.336-18.765 16.289l-2.306 1.687c-3.99 2.827-7.516 4.953-12.319 6.188v2h-2c-.84-3.749-1.67-7.499-2.5-11.25l-.723-3.223-.683-3.105c-.21-.943-.42-1.885-.635-2.857C240 202 240 202 240 198l11 2v-2l-11-2-1-16c-6.83 1.223-6.83 1.223-9.312 4.875-5.967 12.368-4.002 27.266-2.125 40.363.421 3.628.513 7.114.437 10.762-3.955.703-6.029.555-9.562-1.465-5.696-4.085-10.946-8.626-16.094-13.375a252 252 0 0 0-6.531-5.785C189.34 209.722 183.533 203.567 178 197l-2.008-2.379C164 180.053 164 180.053 164 175l-1.758-.078-2.367-.172-2.32-.14c-5.977-1.426-10.245-5.97-14.43-10.235l-1.581-1.604c-11.7-12.023-23.315-26.174-23.919-43.583.107-4.228.792-6.744 3.375-10.188v-3h-2c-1.684-5.836-2.261-10.945-2.125-17l.027-2.348c.024-1.884.06-3.768.098-5.652l-5 13h-1c.305-4.67 1.29-7.765 3.563-11.875 3.762-7.242 2.647-12.887 1.437-20.75-1.272-8.303-2.534-18.225 0-26.375h2l1 25 .402-5.512.535-7.175.264-3.631.264-3.506.238-3.222c.272-2.708.71-5.298 1.297-7.954"/><path fill="#AF918F" d="M235.637 181.852 238 182l.043 3.242c.287 10.832 1.828 21.048 4.02 31.65 1.55 7.646 2.601 15.223 3.375 22.983 1.507 14.767 3.869 30.08 8.59 44.197 1.435 4.323 2.153 8.694 2.91 13.178l.527 3.112c1.48 9.267 2.291 18.541 3.035 27.888 1.232 15.426 3.193 30.484 7.984 45.266.975 4.697 1.714 8.408-.737 12.655-1.744 2.287-3.579 4.436-5.497 6.579l-1.922 2.246c-6.317 7.331-6.317 7.331-9.328 10.004h-2l-1 4h-3l-1 3c-2.436-2.194-3.722-4.179-5-7.187l-1.023-2.391a200 200 0 0 1-2.602-6.86C234.28 392.01 234.28 392.01 232 390c-2.179-3.54-3.196-6.695-3.812-10.75-.688-4.425-1.901-8.322-3.47-12.487-3.856-10.35-5.96-21.828-3.207-32.8 1.308-5.253.347-10.705-.511-15.963h3v-2l-16-1c-2.194 5.001-2.194 5.001-2 10 1.165 1.856 2.429 3.552 3.809 5.254 2.657 3.894 2.441 8.159 2.191 12.746l-2 3c-3.335-1.396-4.92-2.87-6.945-5.844l-1.575-2.277-1.605-2.379a2686 2686 0 0 0-3.195-4.656l-1.415-2.088c-1.286-1.883-1.286-1.883-3.265-3.756-.012-1.883-.012-1.883.313-4.125l.312-2.43c.238-1.552.506-3.1.813-4.64.674-3.693.892-5.316-1.25-8.493L190 303c-2.17-4.123-2.514-7.371-2-12 1.742-5.045 3.743-9.944 6.531-14.504 1.59-2.702 2.623-5.351 3.656-8.308l1.043-2.958.77-2.23-1.828-.379c-7.11-2.033-12.03-9.968-16.172-15.621l-1.695-2.184c-1.954-4.218-1.881-8.278-1.993-12.879l-.1-2.906c-.306-9.675-.306-19.352-.212-29.031 2 0 2 0 3.34 1.293l1.597 1.894 1.887 2.22L187 208l3.864 4.553q5 5.9 9.972 11.822l2.789 3.313 1.368 1.631c3.61 4.283 7.412 8.358 11.327 12.365 2.012 2.773 2.36 4.94 2.68 8.316l-1.863-.36c-2.419-.385-4.687-.67-7.137-.64-2.218 1.54-2.218 1.54-3 4v4c2.56 2.01 2.56 2.01 5.813 3.688l3.269 1.824c2.87 1.555 2.87 1.555 5.918 2.488v2l2.168.805c2.901 1.224 5.462 2.675 8.144 4.32l2.676 1.633L237 275l1-1-2.375-1.687c-4.775-4.207-5.089-9.356-5.687-15.438l-.252-2.436c-.834-8.768-1.106-17.56-1.344-26.361l-.096-3.351-.072-2.982c-.17-2.67-.628-5.131-1.174-7.745-.981-21.241-.981-21.241 3.813-29.625C233 182 233 182 235.637 181.852"/><path fill="#B29B96" d="M178 200c2 0 2 0 3.34 1.293l1.597 1.894 1.887 2.22L187 208l3.864 4.553q5 5.9 9.972 11.822l2.789 3.313 1.368 1.631c3.61 4.283 7.412 8.358 11.327 12.365 2.012 2.773 2.36 4.94 2.68 8.316l-1.863-.36c-2.419-.385-4.687-.67-7.137-.64-2.218 1.54-2.218 1.54-3 4v4c2.56 2.01 2.56 2.01 5.813 3.688l3.269 1.824c2.87 1.555 2.87 1.555 5.918 2.488v2l2.113.797c3.147 1.311 6.09 2.806 9.075 4.453l3.167 1.703c3.164 2.449 3.624 4.261 4.645 8.047q1.993.53 4 1c2.932 3.42 3.958 5.342 4.25 9.875L249 296c-1.5-1.375-1.5-1.375-3-3v-2h-3v-2l-2.66.125c-8.851-.331-17.365-6.056-25-10.27-5.536-3.044-11.022-5.898-17.34-6.855.486-3.123.999-5.996 2-9l-1.625-.187C191.123 260.33 186.346 252.93 182 247l-1.695-2.184c-1.954-4.218-1.881-8.278-1.993-12.879l-.1-2.906c-.306-9.675-.306-19.352-.212-29.031"/><path fill="#524041" d="M236.125 179.875 239 180c.917 5.385 1.111 10.542 1 16 .94.09.94.09 1.898.184l2.477.254 2.46.246C249 197 249 197 251 198v2c-7.625-.875-7.625-.875-11-2l.459 1.94q1.027 4.373 2.041 8.748l.723 3.052.683 2.96c.21.895.42 1.79.635 2.713.459 2.587.542 4.966.459 7.587h2v-2c1.749-1.112 3.553-2.138 5.375-3.125 6.058-3.417 11.34-7.373 16.625-11.875l2 1q-.282 7.473-.635 14.941a655 655 0 0 0-.209 5.075 643 643 0 0 1-.328 7.328l-.07 2.26c-.44 7.974-3.647 13.87-9.383 19.396l-2.352 2.313C256 262 256 262 254 262v2l-4-1q-.974-6.187-1.937-12.375l-.553-3.504c-1.04-6.695-1.932-13.37-2.51-20.121h-2c-3.335-15.149-5.842-29.464-5-45-4.645 1.212-4.645 1.212-7.812 4.625-2.282 6.485-2.274 12.753-2.313 19.563l-.014 2.089c.009 2.763.069 5.386.632 8.097.545 2.825.683 5.477.753 8.353l.095 3.35.096 3.548c.277 8.416.614 16.805 1.438 25.188.1 1.125.1 1.125.2 2.273.805 7.454 3.465 11.897 8.925 16.914-4.576-.56-7.98-2.524-11.812-4.937l-1.811-1.092c-1.498-.93-2.943-1.945-4.377-2.971v-2l-2.105-.277c-3.516-.878-6.11-2.414-9.208-4.286l-3.238-1.94L205 257c2.75-6.75 2.75-6.75 5-9 6.087.543 6.087.543 9 2-1.935-5.933-5.118-9.617-9.352-14.145-2.906-3.133-5.69-6.352-8.46-9.605l-1.514-1.771Q197.336 221.741 195 219a9287 9287 0 0 0-6.562-7.687l-1.517-1.783c-1.86-2.175-3.697-4.315-5.76-6.3C180 202 180 202 180 200l-2-1c3 0 3 0 4.435 1.202l1.499 1.693 1.697 1.88 1.806 2.037c8.31 9.113 16.946 17.468 26.875 24.813l1.706 1.292c3.938 2.813 7.183 3.73 11.982 4.083l-.275-1.92c-5.576-39.357-5.576-39.357 3.275-52.08 2-2 2-2 5.125-2.125"/><path fill="#110F10" d="M122 29h2c1.607 3.215 1.057 6.436 1 10h3c.21 4.927-.392 9.06-1.555 13.844-.567 2.746-.588 5.362-.445 8.156l7-9 1 2c-1.448 2.597-3.098 5.021-4.75 7.492-1.492 2.376-1.492 2.376-.879 4.68L129 68q-.99 2.504-2 5c-.168 3.209-.168 3.209 0 6l1.137-1.941c3.074-5.196 6.14-10.3 9.863-15.059h2c-1.35 2.795-2.838 5.424-4.496 8.047l-1.443 2.312q-1.486 2.372-2.985 4.735C128.062 81.943 125.823 86.586 124 92h4l.68-2.105c1.622-3.556 3.908-6.283 6.445-9.207l1.418-1.667A751 751 0 0 1 140 75l2 1-1.645 2.23-2.167 2.957-2.145 2.918c-3.297 4.672-5.544 8.847-7.23 14.332l-1.043 3.31c-.76 3.213-.914 5.965-.77 9.253l4-2c4.688 5.692 8.195 11.17 11 18 2.547 5.557 5.664 10.664 10 15a102 102 0 0 1 2.125 5.875l1.07 3.18C156 154 156 154 156 158c-11.804-2.05-19.226-10.52-27-19-1.515-3.03-1.648-6.299-2.062-9.625l-.276-2.14q-.335-2.617-.662-5.235h-2l1 14c-4.958-4.958-4.546-13.396-5-20h-2l.938-2.187c.988-2.616 1.59-5.064 2.062-7.813h-2c-1.684-5.836-2.261-10.945-2.125-17l.027-2.348c.024-1.884.06-3.768.098-5.652l-5 13h-1c.305-4.67 1.29-7.765 3.563-11.875 3.762-7.242 2.647-12.887 1.437-20.75-1.272-8.303-2.534-18.225 0-26.375h2l1 25 .402-5.512.535-7.175.264-3.631.264-3.506.238-3.222c.272-2.708.71-5.298 1.297-7.954"/><path fill="#211315" d="M217 69c1.118 2.762 1.071 3.82-.048 6.638l-1.628 2.975-1.76 3.283-1.876 3.416c-5.32 9.455-5.32 9.455-8.688 19.688l4 1 1.277-1.531 1.66-1.969 1.653-1.969L213 99h1c.185 9.41.185 9.41-1 14h2v13h-2l-.187-3.187c-.413-2.02-.413-2.02-1.813-3.813-4.174-2.176-8.505-3.626-13-5v3l1.898.55 2.477.763 2.46.738C207 120 207 120 209 123c-4.847-.591-8.607-1.98-13-4v2l2.137.742c3.26 1.433 5.824 3.253 8.676 5.383l2.957 2.195L212 131l-1 2-2.117-1.312-2.758-1.688-2.742-1.687c-2.222-1.474-2.222-1.474-4.383-1.313l-4 8 3 3c-21.346 4.239-21.346 4.239-27.75 0l-2.25-2 2-1 4 2h4l-1.39-1.25c-4.314-4.06-7.72-8.054-9.61-13.75v-4l-8 2v6l-3-3c1.34-4.629 1.34-4.629 4-6.125 4.1-1.196 8.061-1.339 12.313-1.5l2.533-.117c2.05-.094 4.102-.177 6.154-.258l1-3-3.187-.437A143 143 0 0 1 170 110c0-2 0-2 1.438-3.687 3.887-1.992 7.37-1.056 11.562-.313l-.25-2.812c.25-3.188.25-3.188 1.938-4.876L187 97l2.563-1.75L192 94l3 1-3 4c3.866-3.766 7.437-7.706 10.938-11.812l1.597-1.869C208.989 80.076 213.182 74.726 217 69"/><path fill="#B09994" d="M235.637 181.852 238 182l.043 3.242c.287 10.832 1.828 21.048 4.02 31.65 1.55 7.646 2.601 15.223 3.375 22.983 1.92 22.194 1.92 22.194 8.562 43.125.04 2.333.043 4.667 0 7l-2-2.312c-2.744-2.791-5.52-3.822-9.23-4.915C241 282 241 282 239 279l-.312-2.437c-.935-3.482-2.895-4.383-5.688-6.563-2.158-4.177-2.608-8.51-3.062-13.125l-.252-2.436c-.834-8.768-1.106-17.56-1.344-26.361l-.096-3.351-.072-2.982c-.17-2.67-.628-5.131-1.174-7.745-.981-21.241-.981-21.241 3.813-29.625C233 182 233 182 235.637 181.852"/><path fill="#352D2E" d="M340.688 118c2.312 1 2.312 1 4.312 4 1.53 8.338-1.624 15.532-5 23l-1.14 2.746C333.448 159.27 321.02 171.621 310 178h-3v2c-3.402 2.094-6.053 2.18-10 2-1.136-3.415-1.032-3.924.477-7.504a288 288 0 0 1 2.148-4.059q1.122-2.156 2.238-4.316l1.112-2.13c3.499-6.798 6.447-13.799 9.025-20.991l1 2c4.677-1.238 6.609-3.705 9.512-7.32 1.881-2.124 4.01-3.335 6.488-4.68l1-2h2l.188-3.687c.434-3.436.898-4.43 3.062-7.376C338 118 338 118 340.688 118"/><path fill="#6E5D5F" d="M301 77c2 1 2 1 3.113 3.887 1.286 4.93 1.14 9.863 1.075 14.926l-.002 2.888c-.045 7.017-.045 7.017-1.186 9.299-3.345 1.627-5.188 2-9 2v2h9c-.964 14.781-.964 14.781-2 21l-1.941.367c-4.028.78-8.007 1.56-11.934 2.758C285 137 285 137 281 137v3h9v1c-20.038.48-20.038.48-27-3v-2h4v-3l-12 2 6-11h4v-2l7-1v10l2.25-2.375C277 126 277 126 279.188 125c2.05-.876 2.05-.876 2.687-3.312 1.627-3.887 3.64-5.319 7.125-7.688 2.375.188 2.375.188 4 1l1-7h-2l-1 3c-.687-1.625-.687-1.625-1-4 1.438-3.25 1.438-3.25 3-6h1l1 5c3.276-14.444 3.276-14.444 6-29"/><path fill="#624A45" d="M233 180c2.625.375 2.625.375 5 1v1l-2.812.625c-3.347 1.11-3.347 1.11-5 4-2.282 6.485-2.274 12.753-2.313 19.563l-.014 2.089c.009 2.763.069 5.386.632 8.097.545 2.825.683 5.477.753 8.353l.095 3.35.096 3.548c.277 8.416.614 16.805 1.438 25.188.1 1.125.1 1.125.2 2.273.805 7.454 3.465 11.897 8.925 16.914-4.576-.56-7.98-2.524-11.812-4.937l-1.811-1.092c-1.498-.93-2.943-1.945-4.377-2.971v-2l-2.105-.277c-3.516-.878-6.11-2.414-9.208-4.286l-3.238-1.94L205 257c2.75-6.75 2.75-6.75 5-9 6.087.543 6.087.543 9 2-1.935-5.933-5.118-9.617-9.352-14.145-2.906-3.133-5.69-6.352-8.46-9.605l-1.514-1.771Q197.336 221.741 195 219a9287 9287 0 0 0-6.562-7.687l-1.517-1.783c-1.86-2.175-3.697-4.315-5.76-6.3C180 202 180 202 180 200l-2-1c3 0 3 0 4.435 1.202l1.499 1.693 1.697 1.88 1.806 2.037c8.31 9.113 16.946 17.468 26.875 24.813l1.706 1.292c3.938 2.813 7.183 3.73 11.982 4.083l-.275-1.92c-5.576-39.357-5.576-39.357 3.275-52.08z"/><path fill="#7270B6" d="M160 248c-1.858 22.106-1.858 22.106-6 28l-1.992.328L150 277c-1.143 2.313-1.143 2.313-1.75 5.063L147 287l-15 1 1-8h-2l-.687 1.938c-1.799 4.195-4.052 8.101-6.313 12.062-1-3-1-3 .652-6.574a324 324 0 0 1 2.285-4.113l1.17-2.127q1.436-2.599 2.893-5.186l-2.484 2.922-3.266 3.828-1.633 1.922c-2.764 3.236-5.545 6.376-8.617 9.328l.5-1.562c.665-3.24.744-6.14.5-9.438l-3-2v-3h-2v-4l-4-1q2.874-.477 5.75-.937l3.613-.594c3.271-.422 6.287-.442 9.575-.406 7.82-.549 12.832-5.72 18.473-10.686 2.162-1.874 4.43-3.593 6.714-5.315 2.184-1.661 4.115-3.303 6.055-5.253C159 248 159 248 160 248"/><path fill="#806E6F" d="m197 270 1 2 3.074.39c4.526.703 7.738 2.235 11.738 4.36l2.13 1.093a478 478 0 0 1 8.898 4.692c6.178 3.274 12.327 5.02 19.16 6.465v2h3l2 3c-.744-5.55-.744-5.55-2-11 3.367 1.393 4.986 2.979 7 6l2-2c2.967 15.447 4.785 30.848 6.048 46.51l.174 2.15q.231 2.903.453 5.805C262 345 262.468 348.491 263 352h-2l-1 2-1 1c-.043 2-.04 4 0 6v3h-2c-2.737-14.693-4.67-29.05-5-44l-2 6h-2c-1.701-3.896-2.121-7.216-2.098-11.406l.006-3.004q.03-3.09.14-6.18c.023-5.624.023-5.624-2.751-10.289-2.357-1.628-4.71-2.89-7.297-4.121l-2.514-1.291c-2.577-1.292-5.178-2.508-7.798-3.709l-5.555-2.59-2.675-1.245c-4.055-1.922-8.025-3.998-11.985-6.106-2.813-1.205-5.448-1.667-8.473-2.059z"/><path fill="#AF9F98" d="M118 116h2c1.853 3.706 1.929 8.056 2.5 12.129.197 2.76.197 2.76 1.5 3.871v-10h2c1.69 3.38 2.073 6.105 2.188 9.813.52 6.161 3.51 9.032 7.812 13.187l1.563 1.84c5.034 5.751 11.47 8.3 18.437 11.16l-.734-2.124a2692 2692 0 0 1-3.266-9.564l-1.156-3.341-1.094-3.233-1.016-2.967c-.722-2.726-.877-4.967-.734-7.771 3.183 2.63 4.269 5.638 5.75 9.438l.778 1.979c1.77 4.566 3.369 9.18 4.932 13.82 6.216 18.33 13.586 33.248 26.54 47.763-3.497 0-3.756-.325-6.125-2.687C174.795 194.028 164 182.483 164 175l-1.758-.078-2.367-.172-2.32-.14c-5.977-1.426-10.245-5.97-14.43-10.235l-1.581-1.604c-11.283-11.594-23.6-25.943-23.732-42.896z"/><path fill="#76635F" d="M129 109c6.1 2.49 9.206 8.835 11.688 14.688L142 127c2.547 5.557 5.664 10.664 10 15a102 102 0 0 1 2.125 5.875l1.07 3.18C156 154 156 154 156 158c-11.804-2.05-19.226-10.52-27-19-1.357-2.713-1.565-5.312-2-8.312-.672-4.684-.672-4.684-1.648-9.31-.417-2.82.049-4.465 1.023-7.128l.836-2.36C128 110 128 110 129 109"/><path fill="#535151" d="M122 29h2c1.607 3.215 1.057 6.436 1 10h3c.21 4.927-.392 9.06-1.555 13.844-.567 2.746-.588 5.362-.445 8.156l7-9 1 2c-1.15 2.046-2.399 4.038-3.687 6-8.394 13.16-10.542 25.599-11.313 41-2.031-3.047-2.247-3.601-2.195-7.012l.02-2.295.05-2.38.027-2.417c.024-1.965.06-3.93.098-5.896l-5 13h-1c.305-4.67 1.29-7.765 3.563-11.875 3.762-7.242 2.647-12.887 1.437-20.75-1.272-8.303-2.534-18.225 0-26.375h2l1 25 .402-5.512.535-7.175.264-3.631.264-3.506.238-3.222c.272-2.708.71-5.298 1.297-7.954"/><path fill="#1B0E11" d="M257 398c1.077 3.232 1.256 3.949 0 7l-5 5-.875 2.313c-2.757 6.586-8.384 11.06-14.059 15.113-3.675 2.8-7.172 5.965-10.066 9.574v3h-8l1.46-2.605c4.359-8.056 6.786-15.134 7.54-24.395l2 2c-.375 3.125-.375 3.125-1 6h2v-2h2c1.197-6.32 2.276-12.608 3-19h2l.805 1.898 1.07 2.477 1.055 2.46c.994 2.303.994 2.303 3.07 4.165l1-2 3-1 1-3 1.938-.437c2.243-.353 2.243-.353 3.187-2.5L255 400z"/><path fill="#676063" d="M234 70c1.58 3.992.37 7.427-.75 11.375l-.516 1.96C231.59 87.512 229.971 91.16 228 95v2l1.938-3L232 91h1c-.315 6.987-1.79 13.186-3.965 19.824a182 182 0 0 0-2.012 6.61 228 228 0 0 1-3.46 10.941l-1.247 3.71L221 135l-3 1c-1.851-3.929-2.22-6.988-2.125-11.312l.055-3.239L216 119h3v2h4v-2h2v-2l-5-2c-.514-4.217.02-6.417 2.5-9.75l1.406-1.734c1.29-1.475 1.29-1.475 1.094-3.516l-6 9c-3.015-12.062 9.016-28.674 15-39"/><path fill="#382120" d="m289 114 3 2c-1.335 6.826-4.909 11.48-9 17l-2 3 4 1h-4v3h9v1c-20.038.48-20.038.48-27-3v-2h4v-3l-12 2 6-11h4v-2l7-1v10l2.25-2.375C277 126 277 126 279.188 125c2.05-.876 2.05-.876 2.687-3.312 1.577-3.768 3.895-5.23 7.125-7.688"/><path fill="#B2AFB3" d="m176 224 1 3-3 2c.357 5.6 2 9.218 4.941 13.984C180 245 180 245 180 248l-8-1c-3.882 8.976-2.005 18.315.02 27.517.797 3.742.933 5.672-.02 9.483l-5-15-.586 5.582-.789 7.23-.383 3.682-.39 3.526-.35 3.253C164 295 164 295 162 298c-2.498-19.637-1.392-37.226 5.363-55.848.774-2.615 1.087-5.2 1.45-7.902.625-3.875 1.257-5.912 4.312-8.437z"/><path fill="#231E20" d="M439 281h1q.147 8.434.22 16.87.03 2.87.082 5.738c.048 2.75.071 5.5.089 8.251l.062 2.59c.002 6 .002 6-2.415 8.927L436 325l-1 3.125c-1 2.875-1 2.875-3.125 4.25L430 333c-5.184-8.29-2.068-24.822 0-34 1.375-2.504 1.375-2.504 3-5q1.631-3.389 3.188-6.812l1.605-3.52z"/><path fill="#6F6D6E" d="m394.3 5.3 2.441 1.446 2.572 1.566 2.655 1.608a236 236 0 0 1 17.22 11.643l2.05 1.514c4.634 3.54 4.634 3.54 5.762 6.923l-1.77-.898a132 132 0 0 0-5.918-2.727c-10.834-4.81-21.48-9.699-31.64-15.832C383.914 8.373 380.016 6.633 376 5V3q2.091-.294 4.188-.562l2.355-.317c4.505-.222 7.913.899 11.758 3.18"/><path fill="#9F8080" d="m197 270 1 2 3.074.39c4.526.703 7.738 2.235 11.738 4.36l2.13 1.093a478 478 0 0 1 8.898 4.692c6.178 3.274 12.327 5.02 19.16 6.465v2h3l2 3 2-1c1.389 10.869 2.451 21.076 1 32l-3 1c-1.701-3.896-2.121-7.216-2.098-11.406l.006-3.004q.03-3.09.14-6.18c.023-5.624.023-5.624-2.751-10.289-2.357-1.628-4.71-2.89-7.297-4.121l-2.514-1.291c-2.577-1.292-5.178-2.508-7.798-3.709l-5.555-2.59-2.675-1.245c-4.055-1.922-8.025-3.998-11.985-6.106-2.813-1.205-5.448-1.667-8.473-2.059z"/><path fill="#B0A5A7" d="M217 69c1.085 2.724 1.07 3.817.015 6.606l-1.55 2.937-1.705 3.256-1.822 3.388c-.575 1.1-1.15 2.198-1.74 3.33-3.395 6.417-7.02 12.546-11.198 18.483-3.375-.25-3.375-.25-7-1-1.227-2.047-1.227-2.047-2-4l1.652-1.8c8.97-9.86 17.942-20.091 25.348-31.2"/><path fill="#2A1E1D" d="M244 227c2.273 3.41 2.517 5.462 3.035 9.496l.514 3.881.513 4.06q.514 3.968 1.036 7.934l.453 3.56c.462 3.604.462 3.604 1.449 7.069l3 1v-2c1.75-1.727 1.75-1.727 4-3.625l2.25-1.914L262 255l2 3-1.75 1.504c-4.687 4.122-4.687 4.122-6.875 9.746a616 616 0 0 0 1.102 6.434l.523 3.003c.18 1.024.36 2.048.547 3.102 1.85 13.115 1.85 13.115-1.547 18.211l-.586-3.543-.789-4.644-.383-2.33-.39-2.276-.35-2.079c-.467-2.215-.467-2.215-1.48-4.563-1.81-4.542-2.569-9.344-3.522-14.127l-.669-3.347C245.54 251.219 243.787 239.12 244 227"/><path fill="#3C3C64" d="m109.188 271.938 3.292.027L115 272l-4 2v4h2l1-2-.187 2.375L114 281l3 2-1 2-3.25-.062c-3.46-.099-3.46-.099-5.562.562-3.005.687-5.86.593-8.938.563l-3.547-.028L92 286c-.5-3.125-.5-3.125 0-7 5.037-5.307 9.969-7.14 17.188-7.062"/><path fill="#655254" d="M253 124h2c-.462 5.66-1.524 9.426-5 14-3.75.938-3.75.938-7 1v2l-3 1.188c-2.852 1.213-5.398 2.63-8 4.312-4.17 2.683-8.365 4.914-13.25 6-2.233.638-3.247 1.771-4.75 3.5.486-3.123.999-5.996 2-9h2v2l1.625-1.312c4.203-2.987 8.258-4.936 13.375-5.688l.246-1.82c.995-2.877 2.239-3.49 4.816-5.055 5.259-3.31 10.529-6.716 14.938-11.125"/><path fill="#32151C" d="m197 349 3 1h3c4.038 12.923 4.038 12.923 1 19l-2-16c-3.972 5.296-4.125 9.7-4.719 16.11C197 371 197 371 196 372c-.29 3.394-.449 6.79-.621 10.191-.334 3.357-1.017 6.371-1.887 9.62-.952 4.234-1.204 8.558-1.554 12.877q-.233 2.755-.473 5.511l-.2 2.433c-.28 2.496-.74 4.913-1.265 7.368h-1v-11l-2 2c-.625-1.75-.625-1.75-1-4 .305-.593.61-1.186.926-1.797 1.275-2.616 1.563-4.814 1.89-7.703.125-1.052.25-2.104.377-3.187l.37-3.313q.373-3.25.753-6.5l.327-2.906A51 51 0 0 1 192 375c.98-4.405 1.523-8.837 2.063-13.312l.275-2.245q.332-2.72.662-5.443h2z"/><path fill="#948A8A" d="m175.875 116.813 2.68-.043C181 117 181 117 184 119c.688 2.125.688 2.125 1 4l2-3h3c-.665 4.389-2.188 7.981-4 12h4l-1 3h-11l-2-4 7-1v-3l-3 2c-3.5.438-3.5.438-7 0-2.526-2.77-2.963-4.522-3.25-8.25.413-4.542 1.967-3.907 6.125-3.937"/><path fill="#6C6062" d="M277 76h2c.444 9.525.04 18.499-1.812 27.875l-.501 2.61c-1.507 7.103-1.507 7.103-4.687 9.515-3.687.188-3.687.188-7 0 .59-4.688 1.93-8.49 3.813-12.812 2.997-7.11 4.812-14.272 6.425-21.801C276 78 276 78 277 76"/><path fill="#544E50" d="M301 77c2 1 2 1 3.113 3.887 1.286 4.93 1.14 9.863 1.075 14.926l-.002 2.888c-.045 7.017-.045 7.017-1.186 9.299-3.345 1.627-5.188 2-9 2v2l4 1-5 1v-6h-2l-1 3c-.687-1.625-.687-1.625-1-4 1.438-3.25 1.438-3.25 3-6h1l1 5c3.276-14.444 3.276-14.444 6-29"/><path fill="#F6E5DE" d="M148 129c3.183 2.63 4.269 5.638 5.75 9.438l.778 1.979c1.77 4.566 3.369 9.18 4.932 13.82 6.216 18.33 13.586 33.248 26.54 47.763-3.497 0-3.756-.325-6.125-2.687-13.885-14.589-20.684-32.736-26.908-51.494-1.308-3.813-2.757-7.569-4.226-11.322-.78-2.626-.878-4.774-.741-7.497"/><path fill="#605C5D" d="m140 75 2 1-1.645 2.23-2.167 2.957-2.145 2.918c-6.547 9.276-9.71 18.823-8.988 30.239C127 117 127 117 126.015 119.387c-1.326 3.412-1.208 6.278-1.14 9.926l.055 3.8L125 136c-4.958-4.958-4.546-13.396-5-20h-2l.828-1.984c.892-2.296 1.702-4.57 2.469-6.907C123.982 98.991 126.598 91.752 132 85l2.156-2.758A488 488 0 0 1 140 75"/><path fill="#6363A0" d="M131 275c-4.768 6.526-9.85 12.774-15 19l-1-3 1-1c.333-3.458.333-3.458 0-7l-3-2v-3h-2v-4l-4-1c2.04-.366 4.082-.717 6.125-1.062l3.445-.598c5.782-.573 9.638.418 14.43 3.66"/><path fill="#B4AEAB" d="M118 116h2c1.853 3.706 1.929 8.056 2.5 12.129.197 2.76.197 2.76 1.5 3.871v-10h2c1.69 3.38 2.073 6.105 2.188 9.813.528 6.153 3.482 9.055 7.812 13.187l4.438 4.5A972 972 0 0 0 144 153l-1 2c-6.014-4.575-11.302-9.066-16-15q1.873 2.595 3.75 5.188l2.11 2.917A222 222 0 0 0 139 156c-4.977-.893-7.139-4.083-10-8-7.185-10.484-11.62-19.19-11-32"/><path fill="#9F8F8E" d="M330 157c0 3 0 3-2.09 5.453C312.081 178 312.081 178 307 178v2c-2.957 1.478-5.742 1.06-9 1 1.31-5.373 3.53-9.677 8-13 2.75-.764 5.419-1.13 8.25-1.484 6.174-1.158 11.052-5.552 15.75-9.516"/><path fill="#A49699" d="M231 97c1.479 3.871.464 6.473-.812 10.313-1.106 3.372-2.2 6.73-3.172 10.144a226 226 0 0 1-3.453 10.918l-1.247 3.71L221 135l-3 1c-1.851-3.929-2.22-6.988-2.125-11.312l.055-3.239L216 119h3v2h4v-2h2v-2h-2c-1.224-3.544-1.02-4.95.363-8.516a185 185 0 0 1 1.95-3.734l.974-1.93c2.422-4.675 2.422-4.675 4.713-5.82"/><path fill="#F8EEE2" d="M179 208c3.587 3.11 4.922 5.81 6.36 10.305l1.19 3.707c.198.634.394 1.27.597 1.923.6 1.932 1.223 3.856 1.85 5.78 1.775 5.611 3.265 10.351 3.003 16.285-3.97-3.607-6.449-7.196-8.75-12.062l-.918-1.854c-2.87-5.9-3.475-10.317-3.394-16.834l.013-2.113q.02-2.57.049-5.137"/><path fill="#351A1C" d="M257 398c1.074 3.222 1.225 3.951 0 7-2.066 2.36-2.066 2.36-4.562 4.75l-2.504 2.422L248 414l-2-1 2-2-2-1-1 3-3 1-1-3h-3l-.516 1.828c-2.488 8.207-2.488 8.207-6.484 11.172h-2l-.875 2.438C227 429 227 429 225 430l3-17 2 2c-.375 3.125-.375 3.125-1 6h2v-2h2c1.197-6.32 2.276-12.608 3-19h2l.805 1.898 1.07 2.477 1.055 2.46c.994 2.303.994 2.303 3.07 4.165l1-2 3-1 1-3 1.938-.437c2.243-.353 2.243-.353 3.187-2.5L255 400z"/><path fill="#B2ACAB" d="m176 224 1 3-3 2c.357 5.6 2 9.218 4.941 13.984C180 245 180 245 180 248l-8-1-3 8-5-1 .55-1.914a170 170 0 0 0 3.762-16.461c1.465-7.182 1.465-7.182 4.875-10z"/><path fill="#404040" d="M104 0c2.629-.437 2.629-.437 6 0 2.426 2.01 4.13 4.436 5.938 7l1.533 1.965c2.519 3.47 3.925 5.87 3.412 10.223L120 23l-.535 2.75-.528 2.25-.535 2.313L118 32h-1v-8h-2v-2l-2.625-.75c-3.586-1.328-6.338-2.936-9.375-5.25v-2c6.875 1.875 6.875 1.875 8 3q3.493.552 7 1l-1.285-1.434C104 2.231 104 2.231 104 0"/><path fill="#2F1B1D" d="M307 114h2q.039 3.406.063 6.813l.035 3.832C309 128 309 128 308 131h2v-4h2l2-7h1q.08 3.906.125 7.813c.017.737.034 1.475.05 2.236.036 3.863.019 5.66-2.175 8.951l-1-5c-3.1 1.065-3.975 1.958-5.703 4.82l-1.547 3.305-1.578 3.32L302 148h-1c-.977-6.055-.977-6.055-1-8l2-2c.648-2.57.648-2.57 1-5h2l-.035-2.152-.027-2.786-.036-2.777C305 123 305 123 306 122c.23-1.347.412-2.704.563-4.062z"/><path fill="#6F6061" d="m162 101 1 10q-2.654 1.008-5.312 2l-2.989 1.125C152 115 152 115 149 115l-1 2-4-3c.75-5.75.75-5.75 3-8a97 97 0 0 1 5-2.062C159.626 101 159.626 101 162 101"/><path fill="#616161" d="M406 86c10.165 6.577 14.836 21.369 17.664 32.648.37 2.587.433 5.052.399 7.665l-.028 2.675L424 131c-2.275-3.412-2.566-5.657-3.125-9.687l-.508-3.575L420 115l-2 12h-1l-.008-2.246c-.448-12.213-4.447-23.3-10.23-33.999C406 89 406 89 406 86"/><path fill="#5F5C5D" d="M122 29h2c1.607 3.215 1.057 6.436 1 10h3c.61 9.146-2.674 17.605-6 26-2.449-3.673-2.303-6.44-2.25-10.687l.012-2.254C119.88 44.29 120.843 36.672 122 29"/><path fill="#2A1416" d="M303 119c1.934 3.868 2.233 5.15 2.125 9.25l-.055 2.703L305 133h-2l.25 2.25c-.25 2.75-.25 2.75-1.937 5.125C299 142 299 142 296.25 141.75L294 141v2h-3l-1-2c-2.126-.467-2.126-.467-4.562-.625l-2.504-.227L281 140v-3l2.047-.367 2.703-.508 2.672-.492c2.545-.501 2.545-.501 4.469-1.703C295 133 295 133 302 133z"/><path fill="#4D3831" d="M179 198c3.339 2.606 6.232 5.178 8.938 8.438 3.588 4.206 7.533 7.972 11.562 11.75l1.906 1.8c3.99 3.708 8.098 6.935 12.594 10.012l-1 5c-4 0-4 0-6.043-1.8l-2.144-2.512-2.395-2.778a955 955 0 0 1-9-11.023c-3.183-3.8-6.542-7.42-9.964-11.004C180 202.213 180 202.213 180 200l-2-1z"/><path fill="#111328" d="M157 261h1c2.038 11.387 2.038 11.387-.422 15.21a76 76 0 0 1-3.863 3.302c-2.426 2.105-2.887 4.452-3.715 7.488-1.16 1.66-1.16 1.66-3 3-2.918.293-2.918.293-6.187.188l-3.293-.083L135 290l-1 4h-2v-3c-3.05-1.011-3.05-1.011-6 0 1.22-4.033 2.56-7.543 5-11h2l-1 8 3-.5c4.027-.585 7.935-.571 12-.5l.332-2.117.48-2.758.458-2.742C149 277 149 277 152 275l2 1c1.916-4.982 2.555-9.727 3-15"/><path fill="#2C2B33" d="M270 349c1.319.397 2.63.818 3.938 1.25l2.214.703C278 352 278 352 278.734 353.813c.967 7.961.395 13.22-3.734 20.187-3.954-3.196-3.953-6.971-4.66-11.77-.466-4.428-.517-8.784-.34-13.23"/><path fill="#6F6F6F" d="M380 39c4.099 1.61 6.762 4.578 9.75 7.688 4.054 4.142 8.166 8.102 12.582 11.863 2.34 2.032 4.477 4.258 6.668 6.449q1.647 1.356 3.313 2.688L415 70v2c-7.166-.321-7.166-.321-10.871-3.336l-2.567-3.039-1.4-1.624A266 266 0 0 1 396 59l-2.457-2.996a968 968 0 0 1-4.461-5.52c-2.447-2.92-5.076-5.555-7.867-8.144C380 41 380 41 380 39"/><path fill="#60565A" d="M193 123h2l-.875 2.125c-1.146 2.93-2.151 5.884-3.125 8.875l1.813.313c2.487.781 3.434 1.813 5.187 3.687-21.346 4.239-21.346 4.239-27.75 0l-2.25-2 2-1 4 2h4l-1.437-1.187c-1.915-2.221-2.176-3.947-2.563-6.813l9-2 1 4h-8l2 3c2.667.365 2.667.365 5.625.188l3.04-.083L189 134l1-2-4-1h4l.938-2.875C192 125 192 125 193 123"/><path fill="#6B504D" d="M199 293c4.348.395 8.103.95 12.188 2.5 4.887 1.768 9.631 1.944 14.796 2.094 3.342.45 5.272 1.495 8.016 3.406l-1 2c-4.7-.366-9.143-.753-13.687-2.062-6.193-1.731-12.935-1.087-19.313-.938l-4 9-2-2 .84-1.793c2.718-5.897 2.718-5.897 4.16-12.207"/><path fill="#332428" d="m225 99 1 3c-.996 1.613-.996 1.613-2.437 3.313-2.55 3.309-3.08 5.442-2.563 9.687l4 2v2h-2v2h-4v-2h-3q.214 2.844.438 5.688l.246 3.199c.28 2.764.718 5.402 1.316 8.113l3 1-3 9h-1l.313-3.937c.047-4.968-1.588-7.96-4.317-12.02C212 128 212 128 212.348 125.738L213 124v2h2l-2-7h1l3-12 2 1z"/><path fill="#5D4D47" d="M150 140c2.474 2.474 3.031 4.562 4.125 7.875l1.07 3.18C156 154 156 154 156 158c-3.611-.59-6.517-1.536-9.75-3.25l-2.36-1.203C142 152 142 152 141.173 149.453 141 147 141 147 142 145h-2l1-4 10 7-2-7z"/><path fill="#291A19" d="m192 94 3 1-.875 1.688c-1.166 2.397-2.159 4.828-3.125 7.312 2.918 1.945 4.625 2.453 8 3l-4 2v3c-4.86-.607-8.74-2.728-13-5 .49-6.49.49-6.49 2.75-8.75L187 97l2.563-1.75z"/><path fill="#B8A5A8" d="M198 114c4.99.499 10.363 1.329 14 5 1 4.016 1.104 7.875 1 12-4.172-1.486-7.629-3.553-11.312-6l-3.239-2.125L196 121v-2c3.375.563 5.959 1.48 9 3h3l-10-5z"/><path fill="#655154" d="M289 116c-.955 6.495-4.14 11.77-8 17h-2v3h-8v-2h2l.188-1.625c1.212-3.545 3.258-5.634 5.812-8.375h2l.813-2.312c1.743-3.946 2.742-5.688 7.187-5.688"/><path fill="#6F595C" d="M272 121c-.632 5.053-2.135 9.296-4 14l-1-2-12 2 6-11h4v-2c2.49-.687 4.379-1 7-1"/><path fill="#675B5B" d="M129 109c3.609 1.445 5.077 3.173 7.125 6.438l1.508 2.37L139 120l2 3c.125 2.688.125 2.688 0 5-2.4-2.88-4.473-5.564-6-9l-1 5h-5l-1-3-3 1q.425-2.69.875-5.375l.492-3.023C127 111 127 111 129 109"/><path fill="#685254" d="M246 283c2.468 1.152 4.048 2.048 6 4 1.733 5.604 2.278 10.601 2.195 16.438l-.008 2.32c-.011 2.414-.036 4.828-.062 7.242q-.016 2.475-.027 4.95-.035 6.024-.098 12.05h-1c-.105-1.068-.21-2.137-.32-3.238-.398-4.008-.81-8.014-1.224-12.02q-.265-2.59-.52-5.18C249.664 296.04 249.664 296.04 246 283"/><path fill="#C9BFC2" d="M168 123c1.66 1.828 1.66 1.828 3.063 4.25 2.814 4.596 5.423 7.74 9.937 10.75-6.99.912-11.449-1.907-17-6-4-4.095-4-4.095-4-8 3.027-1.01 4.853-1.412 8-1"/><path fill="#726B6F" d="M217 69c.836 2.38 1.109 3.65.35 6.09a486 486 0 0 1-3.537 7.097L212.6 84.71l-1.205 2.396-1.099 2.193C208.664 91.44 207.6 91.547 205 92a264 264 0 0 0-5 3l-3 1c1.561-3.543 3.707-6.228 6.188-9.187 7.22-8.669 7.22-8.669 13.812-17.813"/><path fill="#8E7C80" d="M258 329h2l3 23h-2l-1 2-1 1c-.043 2-.04 4 0 6v3h-2c-1.281-6.616-.934-13.043-.625-19.75l.133-3.441c.359-8.41.359-8.41 1.492-11.809"/><path fill="#371B1F" d="m197 349 3 1h3c4.038 12.923 4.038 12.923 1 19l-2-16c-3.972 5.296-4.125 9.7-4.719 16.11C197 371 197 371 196 372a70 70 0 0 0-.562 4.063L195 380c-1.658-2.984-2.675-5.587-3-9l2-6c.465-3.658.751-7.321 1-11h2z"/><path fill="#7B5E5A" d="m197 270 1 2 3.074.39c4.526.703 7.738 2.235 11.738 4.36l2.128 1.095A868 868 0 0 1 221 281a147.6 147.6 0 0 0 21 9v2l1.938.75C246 294 246 294 246.628 296.078L247 298l-1.668-1.18c-8.809-5.927-18.303-10.204-27.906-14.672-4.045-1.914-8.004-3.986-11.953-6.09-2.813-1.204-5.448-1.666-8.473-2.058z"/><path fill="#777576" d="M334 0h43v1c-9.311 1.816-18.544 2.588-28 3l-3.324.2-2.926.112-2.516.114C338 4 338 4 334 0"/><path fill="#393838" d="M138 62h2a79 79 0 0 1-4.46 7.977c-6.784 10.601-6.784 10.601-11.856 22.078-.733 2.084-1.662 3.989-2.684 5.945-.65-7.506.254-14.02 2.375-21.187l.67-2.287c.583-1.865 1.261-3.7 1.955-5.526l2-1-1 11 2.688-4.562c2.593-4.311 5.21-8.475 8.312-12.438"/><path fill="#92716D" d="m229 380 1 2h2v2h7v2l2.813-.125C245 386 245 386 248 388l-1 4c-6.625 1-6.625 1-10 1l-2 1c-3.558-4.405-6-8.245-6-14"/><path fill="#EDDCDA" d="M196 274c6.152-.869 10.198 1.162 15.438 4l2.216 1.156c1.789.935 3.568 1.888 5.346 2.844v2c-8.489-2.774-8.489-2.774-11.687-4.187-3.08-1.082-5.073-1.353-8.313-.813-3.341 3.341-5.692 6.87-8 11-.885-2.475-1.09-3.71-.293-6.254l1.106-2.308 1.082-2.317C194 277 194 277 196 274"/><path fill="#6F5C5C" d="M235 139h5c-1.352 4.057-3.408 4.79-7 7l-2.437 1.563c-3.752 2.104-7.598 4-11.813 4.937-2.233.638-3.247 1.771-4.75 3.5.486-3.123.999-5.996 2-9h2v2l1.625-1.312c4.817-3.423 9.723-5.219 15.375-6.688z"/><path fill="#3B2828" d="M143 112c6.121 6.121 5.861 20.65 7 29-4.711-5.72-8.197-10.826-10.29-17.95-.706-2.317-.706-2.317-2.71-5.05l6 1z"/><path fill="#846C66" d="M231 157c6.267 7.729 6.267 7.729 6.125 13.188l-.055 2.73L237 175l-7 3q-.04-3.562-.062-7.125l-.026-2.016c-.02-4.066.3-7.871 1.088-11.859"/><path fill="#524245" d="m323 155 2 1a176 176 0 0 0 5 1c-4.6 5.032-10.894 10.756-18.043 11.098l-2.144-.036L306 168c3.792-4.267 7.672-6.895 13-9h2v-2h2z"/><path fill="#AA9296" d="M302 122v11l-12 1c2.875-9.875 2.875-9.875 4-11 6.222-1 6.222-1 8-1"/><path fill="#2C2322" d="M178 220h1l.028 1.908c.054 2.886.138 5.77.222 8.655l.043 3.001c.21 6.315 1.063 10.24 4.707 15.436l-4 1-.687-2.937c-1.12-4.027-3.086-7.324-5.29-10.852-1.189-2.569-1.21-4.412-1.023-7.211l4-2-.625-1.812C176 223 176 223 178 220"/><path fill="#6E6062" d="M313 133c.376 6.802-.225 11.757-3 18h-3l-1-7h-2c1.207-4.427 2.476-7.026 6-10 2-1 2-1 3-1"/><path fill="#968A8E" d="M231 97c1.479 3.871.464 6.473-.812 10.313l-1.13 3.468L228 114a438 438 0 0 0-2 7l-3-2h2v-2h-2c-1.224-3.544-1.02-4.95.363-8.516a185 185 0 0 1 1.95-3.734l.974-1.93c2.422-4.675 2.422-4.675 4.713-5.82"/><path fill="#6C6366" d="M159 87h2c-.264 3.827-.711 7.375-2 11-2.43 2.077-5.018 2.94-8 4-2.376 1.611-2.376 1.611-4 3l-1-7 2.336-1.645 3.039-2.168 3.023-2.144c2.769-1.955 2.769-1.955 4.602-5.043"/><path fill="#271D1B" d="M159 174c2.375.188 2.375.188 5 1 1.313 2.563 1.313 2.563 2 5-3 1-3 1-5 1-2.372 2.42-4.329 5.055-6 8-.06 2.905-.06 2.905 1 5h-3v-2l-2.992 2.406-3.883 3.094-1.973 1.59-1.894 1.504-1.746 1.396C139 203 139 203 137 203c1.14-3.422 1.883-3.88 4.75-5.875 2.592-1.858 4.93-3.686 7.125-6L151 189h2l.25-1.75c.96-2.881 2.612-4.112 4.75-6.25a100 100 0 0 0 3-6z"/><path fill="#211E23" d="m180 328 3 3c-2.304 6.527-5.998 11.276-11 16l-1-3c-2-1.209-2-1.209-4-2l1-2 3 1a1512 1512 0 0 0 2.438-3.375l1.37-1.898c1.247-1.721 1.247-1.721 2.192-3.727a249 249 0 0 1 3-4"/><path fill="#0F0F2C" d="M131 275c0 4.9-2.989 8.587-5.371 12.773-1.455 2.882-2.044 5.104-2.629 8.227l-2 1-2-1v-2l-4 2-1-4 2 1 1.758-2.16c4.352-5.336 8.732-10.636 13.242-15.84"/><path fill="#CDC5C6" d="M170 121h13c0 5 0 5-1.062 6.813-3.098 1.898-5.405 1.692-8.938 1.187-2.382-2.843-3-4.284-3-8"/><path fill="#252525" d="M383 131c6.378 7.248 5.244 16.372 5.125 25.438l-.027 3.95q-.036 4.807-.098 9.612l-2 1-.06-2.136c-.096-3.247-.206-6.493-.315-9.739-.03-1.109-.062-2.217-.094-3.36-.212-6.02-.711-11.686-2.115-17.55-.46-2.447-.483-4.732-.416-7.215"/><path fill="#767591" d="M160 248c-1.772 21.082-1.772 21.082-6 28h-4l.813-2.375a470 470 0 0 0 2.812-8.875c.26-.85.52-1.702.79-2.578.672-2.119.672-2.119.585-4.172h2c-.776-3.075-.776-3.075-3-5 4.875-5 4.875-5 6-5"/><path fill="#968A8B" d="m161 102-1 5-2.687.813c-3.283 1.05-3.283 1.05-5.875 2.75-2.53 1.491-4.551 2.025-7.438 2.437.75-4.75.75-4.75 3-7a83 83 0 0 1 4.875-2.125l2.617-1.07C157 102 157 102 161 102"/><path fill="#837676" d="M180 105c1.7.944 3.36 1.957 5 3a248 248 0 0 0 7.89 2.938C195 112 195 112 196 115a1223 1223 0 0 1-4.937-1.437l-2.778-.81C186 112 186 112 185 111a200 200 0 0 0-7.562-.562l-2.155-.131q-2.64-.159-5.283-.307v-2c3.172-3.172 5.611-3.537 10-3"/><path fill="#766969" d="M175 110c6.993-.526 13.051-.052 19 4l1 3 3.125.313c3.855.683 6.527 1.694 9.875 3.687l1 2c-3.735-.498-5.812-.875-9-3l-3.125-.312C192 118.823 187.982 116.957 184 114l-1-3h-8z"/><path fill="#646464" d="M409 15c6.415 3.92 12.55 7.792 18 13v2l-1.734-.883c-2.15-1.06-4.318-2.035-6.516-2.992-4.324-1.908-8.539-3.981-12.75-6.125l2-1c.652-2.025.652-2.025 1-4"/><path fill="#F1DEDA" d="M207 257.938c5.475.902 9.716 4.76 14 8.062-3 1-3 1-5.34.004l-2.597-1.442C209.508 262.596 208.196 262 204 262l-4 10h-2c.683-5.74 2.133-13.92 9-14.062"/><path fill="#E7DAD0" d="M166 174c1.982 2.534 3.568 5 5 7.875 3.198 5.912 7.465 10.973 11.672 16.184C185 201 185 201 186 203c-10.241-4.205-16.768-16.807-22-26z"/><path fill="#1D1D1D" d="M371 157h2c3.153 9.458-.165 20.284-4.45 28.922L367 188h-3l1-2h2l.375-2.375c.334-1.937.68-3.873 1.102-5.793 1.51-6.914 2.103-13.774 2.523-20.832"/><path fill="#3F3837" d="M125 110c2 3 2 3 1.688 6-.688 3-.688 3-1.688 6-.07 2.395-.084 4.792-.062 7.188l.027 3.855L125 136c-5.18-5.18-4.571-14.132-5-21l4-1z"/><path fill="#312627" d="m172.313 115.875 2.533.027c2.051.024 4.103.06 6.154.098v1l-10 1c-.39 3.99.008 6.382 2.063 9.75L175 131l-1 2c-4.022-4.715-7-8.662-7-15l-8 2v6l-3-3c1.336-4.616 1.336-4.616 4-6.156 4.144-1.166 8.032-1.057 12.313-.969"/><path fill="#423031" d="M257 398c1.074 3.222 1.225 3.951 0 7-2.066 2.36-2.066 2.36-4.562 4.75l-2.504 2.422L248 414l-2-1 2-2-2-1-1 3-3 1-1-5 3 2 1-2 3-1 1-3 1.938-.437c2.243-.353 2.243-.353 3.187-2.5L255 400z"/><path fill="#2F1B19" d="M244 227c2.466 3.699 2.752 7.082 3.29 11.387l.327 2.476c.343 2.607.676 5.216 1.008 7.825l.695 5.306q.851 6.502 1.68 13.006h-2c-2.022-8.14-3.367-16.162-4.187-24.5l-.254-2.57c-.399-4.326-.65-8.58-.559-12.93"/><path fill="#171315" d="M429 304h1l1 24 2 1 .688-2.687c1.484-3.747 3.336-5.65 6.312-8.313-.408 2.367-.674 3.688-2.437 5.375-1.823 1.65-1.823 1.65-2.5 4.688C434 331 434 331 431.875 332.375L430 333c-2.338-3.677-2.236-6.837-2.187-11.125l.019-2.002c.083-5.33.472-10.59 1.168-15.873"/><path fill="#4B4A4A" d="m399 1-1 1 5 2v2l1.613.316c3.055.875 5.73 2.205 8.575 3.622 1.599.786 1.599.786 3.23 1.59C419 13 419 13 420 15c-3.44-.585-6.323-1.457-9.469-2.96l-2.48-1.18-2.551-1.235-2.55-1.21C398.843 6.448 394.847 4.444 391 2c3.067-1.862 4.597-2.215 8-1"/><path fill="#A79692" d="M144 135c1.89.648 1.89.648 4 2 1.047 2.602 1.047 2.602 1.75 5.625l.734 3.04L151 148c-3.965-1.48-6.776-3.236-10-6 .75-4.75.75-4.75 3-7"/><path fill="#EFDFDA" d="M148 129c3.409 2.715 4.61 6.433 6.125 10.375l.8 2c1.379 3.511 2.485 6.896 3.075 10.625h-2l-1 2c-1.18-3.225-2.341-6.455-3.5-9.687l-1.012-2.764-.957-2.686-.888-2.46c-.686-2.565-.758-4.76-.643-7.403"/><path fill="#0C0C11" d="m161 252 1 3 2 1a1090 1090 0 0 1-1.375 7.938l-.383 2.287c-.347 1.938-.788 3.859-1.242 5.775l-2 1c-1.405-2.809-1.132-5.181-1.125-8.312l-.008-3.426c.119-2.906.33-5.47 1.133-8.262z"/><path fill="#63575B" d="M232 91h1v6l-1.797.602c-3.157 2.003-3.947 4.388-5.453 7.773l-1.578 3.46c-1.404 3.228-1.404 3.228-1.172 7.165l-3-1c-.504-4.134-.059-6.28 2.438-9.5l1.382-1.754c1.664-2.463 1.966-4.822 2.18-7.746l2 1 1.938-3z"/><path fill="#5C4947" d="M134 118c2.845 2.723 4.862 5.69 7 9l2 3-1 3c-3.916-1.305-6.675-2.512-9-6-.032-3.075.408-5.988 1-9"/><path fill="#93858A" d="M213 99h1q.04 2.125.063 4.25l.035 2.39c-.094 2.267-.466 4.189-1.098 6.36-5.75-.875-5.75-.875-8-2 1.358-2.965 2.924-5.291 5.063-7.75l1.597-1.86z"/><path fill="#1A1A1A" d="M439 265h1c.465 5.815-.552 8.37-4 13l-1.562 3.313C433 284 433 284 430 285c-.57-4.848 1.23-7.138 4-11l1-3h2v-4h2z"/><path fill="#414040" d="M116 35h2c.03 3.542.047 7.083.063 10.625l.025 3.027c.016 4.898-.045 9.535-1.088 14.348h-1c-1.219-8.686-2.695-19.51 0-28"/><path fill="#161415" d="m123 91 4 1a799 799 0 0 1-1.375 5.313l-.773 2.988C124 103 124 103 122 106h-3c-1.369-4.517-.47-7.588 1-12h2z"/><path fill="#B49D98" d="M210 250c4.138.301 6.518.679 10 3v3h-13c1-4 1-4 3-6"/><path fill="#8A797B" d="M198 114c5.348.535 9.358 2.467 14 5v5h-5v-3l-9-4z"/><path fill="#1C1A1B" d="M377 0h18l-3 2 11 5-1 3c-3.733-1.002-6.406-2.216-9.375-4.625-2.742-2.091-4.366-2.653-7.812-2.5C381 3 381 3 377 0"/><path fill="#251F26" d="m254 276 1 2h2c2.929 16.107 2.929 16.107-1 22-1.438-8.076-2.296-15.794-2-24"/><path fill="#202037" d="m100 273 2 1c-.75 1.938-.75 1.938-2 4-2.125.75-2.125.75-4 1v6l1.703-.496c2.428-.533 4.566-.603 7.047-.567l2.422.028L109 284c-3.595 2.26-6.566 2.209-10.75 2.125l-3.547-.055L92 286c-.5-3.125-.5-3.125 0-7 2.403-2.43 5.09-4.226 8-6"/><path fill="#280E0E" d="M294 135c.981 3.053.981 4.947 0 8h-3l-1-2c-2.126-.467-2.126-.467-4.562-.625l-2.504-.227L281 140v-3q2.405-.505 4.813-1l2.707-.562C291 135 291 135 294 135"/><path fill="#BBAEAF" d="m168 123 2 5-6 4c-4-4.625-4-4.625-4-8 2.928-.976 4.956-1.082 8-1"/><path fill="#8B8B8E" d="M161 265h1v16l3 1a691 691 0 0 1-.375 6.313l-.21 3.55C164 295 164 295 162 298c-.965-7.224-1.12-14.28-1.062-21.562l.013-3.346q.018-4.047.049-8.092"/><path fill="#251D25" d="M259 305h1l.168 1.728q.379 3.855.77 7.71l.263 2.72.264 2.588.238 2.396c.113 1.869.113 1.869 1.297 2.858.25 3.375.25 3.375 0 7-1.516 1.727-1.516 1.727-3 3-.364-4.437-.715-8.874-1.062-13.312l-.315-3.827-.283-3.662-.27-3.38C258 308 258 308 259 305"/><path fill="#786363" d="M279 127c2 2 2 2 3 4l-1 2h-2v3h-8v-2h2l.313-1.812c.967-3.08 2.295-5.188 5.687-5.188"/><path fill="#393031" d="M307 114h2c.292 6.422-.465 12.754-2 19l-2 2a70 70 0 0 0-1.625 4.625c-.26.817-.52 1.635-.79 2.477L302 144l-2-4 2-2c.648-2.57.648-2.57 1-5h2l-.035-2.152-.027-2.786-.036-2.777C305 123 305 123 306 122c.23-1.347.412-2.704.563-4.062z"/><path fill="#392A2A" d="M197 121q2.627 1.654 5.25 3.313l2.953 1.863A103 103 0 0 1 212 131l-1 2-2.117-1.312-2.758-1.688-2.742-1.687c-2.222-1.474-2.222-1.474-4.383-1.313l-3 6c-1-3-1-3-.062-5.187.35-.599.7-1.197 1.062-1.813l-2-1z"/><path fill="#786B6F" d="m195 95-.875 1.688c-1.185 2.34-1.185 2.34-2.125 5-1 2.312-1 2.312-3 3.312v-2h-6c.372-2.63.708-3.745 2.742-5.52l2.133-1.293 2.117-1.332C192 94 192 94 195 95"/><path fill="#E4CECE" d="M199 301c1.683 3.366.048 6.864-.812 10.375l-.542 2.328c-.876 3.657-1.714 7.027-3.646 10.297h-2c2.757-18.757 2.757-18.757 7-23"/><path fill="#998B85" d="M178 200h2c1.508 1.75 1.508 1.75 3.125 4l1.633 2.25L186 208l-4 3-2-2-1 11h-1z"/><path fill="#75696F" d="M177 89c0 3.856-1.258 5.506-3.488 8.547C172 99 172 99 168.688 99.437L166 99c.57-3.306 1.323-4.948 4-7 2.3-1.117 4.618-2.056 7-3"/><path fill="#666" d="M413 76c4.602.575 11.582 1.582 15 5 .04 1.666.043 3.334 0 5-3.865-1.386-6.968-3.19-10.312-5.562-.884-.62-1.767-1.24-2.676-1.88L413 77z"/><path fill="#281E21" d="M159 92h1l-.125 3.375c-.286 3.669-.286 3.669 2.125 5.625q-2.616 1.3-5.25 2.563l-2.953 1.44c-2.896 1.032-3.997 1.11-6.797-.003 7.114-6.704 7.114-6.704 12-7z"/><path fill="#848188" d="M183 129h3v3h4l-1 3h-11l-2-4 7-1z"/><path fill="#464143" d="M314 120h1q.08 3.906.125 7.813c.017.737.034 1.475.05 2.236.036 3.863.019 5.66-2.175 8.951l-1-5-4 1 1.313-3c1.697-3.953 3.2-7.963 4.687-12"/><path fill="#6A5F65" d="M207 82h1c.4 3.396-.012 5.023-1.562 8.125-2.993 3.53-5.124 4.382-9.438 5.875 1.562-3.5 3.663-6.272 6.063-9.25l2.16-2.703z"/><path fill="#877878" d="m167 118 1 5-8 1v3l-2-1v-6c3.135-1.858 5.375-2.201 9-2"/><path fill="#987573" d="M247 300h1c.724 3.311 1.164 6.478 1.316 9.863l.127 2.686.12 2.764.13 2.822q.159 3.432.307 6.865l-2 1c-.926-3.139-1.117-5.937-1.098-9.203l.01-2.969.025-3.078.014-3.125q.018-3.812.049-7.625"/><path fill="#402926" d="M302 166c3 0 3 0 5 1l-1.207 1.54c-3.079 3.999-5.709 7.829-7.793 12.46h5v1h-6c-1.253-2.951-1.01-3.974.215-7.016l1.723-3.234 1.714-3.266z"/><path fill="#9A8B85" d="M126 138c2.457 2.363 4.701 4.817 6.875 7.438 2.774 3.283 5.748 5.909 9.125 8.562l-1 4v-2l-1.746-.73c-2.687-1.514-4.292-3.262-6.316-5.583l-2.036-2.3C126 141.237 126 141.237 126 138"/><path fill="#4A3738" d="m229 142 2 1c-2.383 2.634-4.94 4.22-8 6-3.3 2.112-6.37 4.077-9 7 .486-3.123.999-5.996 2-9h2v2l1.625-1.312c2.665-1.894 5.442-3.254 8.375-4.688z"/><path fill="#3E3B3C" d="m133 52 1 2c-1.293 2.531-1.293 2.531-3.187 5.5l-1.856 2.969C127 65 127 65 123 67v-9l2-1 1 4z"/><path fill="#393939" d="m119 18 2 2c-.46 2.82-.46 2.82-1.375 6.125l-.898 3.32L118 32h-1v-8h-2v-2h-2v-3c2.875-.625 2.875-.625 6-1"/><path fill="#775553" d="m229 380 1 2h2v2h2v2l3 1-1 2h2v2h-2l-1 3c-3.558-4.405-6-8.245-6-14"/><path fill="#8F7975" d="m197 270 1 2 3.098.402c4.387.672 7.473 2.094 11.34 4.16l1.927.999c1.55.804 3.093 1.62 4.635 2.439l-2 2-2.852-1.496-3.773-1.942-1.871-.986c-3.837-1.959-7.221-3.108-11.504-3.576z"/><path fill="#CBC0BA" d="M124 138h2c1.262 1.688 1.262 1.688 2.688 4 3.039 4.735 6.506 8.868 10.312 13l-3 1c-12-13.003-12-13.003-12-18"/><path fill="#493331" d="m255 129 2 4a361 361 0 0 1-3.25 4.438l-1.828 2.496c-2.027 2.179-3.021 2.713-5.922 3.066 1.458-3.078 3.162-5.863 5.063-8.687l1.597-2.387C254 130 254 130 255 129"/><path fill="#231819" d="M178 111c3.353-.373 4.604-.31 7.313 1.813C187 115 187 115 187 118l2 2-5 4-.375-2.437L183 119l-2-1 1-6z"/><path fill="#2F2B2C" d="m262 255 2 3-1.715 1.574-2.223 2.113-2.214 2.075c-2.042 2.473-2.5 4.088-2.848 7.238l-2-2v-4h2l-1-3z"/><path fill="#231C1E" d="m330 131 1 3a467 467 0 0 1-5.625 6l-1.582 1.734c-4.032 4.182-4.032 4.182-8.191 4.641L313 146l1.785-.754c2.525-1.42 3.84-2.936 5.652-5.184 2.615-3.11 4.94-5.144 8.563-7.062z"/><path fill="#1F1618" d="m194 119 3 2-1 4-2-2zm0 6 3 1-2 8h-4c.498-3.735.875-5.812 3-9"/><path fill="#12121D" d="M279 355h1v5h2a212 212 0 0 1-.312 4.313l-.176 2.425c-.603 2.663-1.54 3.454-3.512 5.262-.722 2.606-.722 2.606-1 5h-1c-.144-3.094-.225-5.456.969-8.344 1.128-2.906 1.432-5.367 1.656-8.469l.227-2.957z"/><path fill="#3C3C3C" d="M383 131c2.82 3.677 4.129 5.694 4.098 10.352l-.01 2.578-.026 2.695-.013 2.719q-.018 3.328-.049 6.656h-1c-1.143-8.323-2.252-16.63-3-25"/><path fill="#6D6D6D" d="M406 86c6.362 4.814 6.362 4.814 8 8-.312 3.75-.312 3.75-1 7-3.508-4.21-7-9.426-7-15"/><path fill="#454344" d="M122 29h2c1.607 3.215 1.057 6.436 1 10l3 1-6 2c-1.364-2.728-.878-4.61-.562-7.625l.308-3.04z"/><path fill="#17161B" d="m178 334 1 3c-1.434 2.043-1.434 2.043-3.437 4.188l-1.997 2.167L172 345l-5-3 1-2 3 1 1.813-2.937C175 335 175 335 178 334"/><path fill="#151544" d="M131 280h2l-1 8h7v1l-2.336.184-3.039.253-3.023.247c-2.581.166-2.581.166-4.602 1.316 1.22-4.033 2.56-7.543 5-11"/><path fill="#DCC4BF" d="M219 282v2c-8.36-2.732-8.36-2.732-11.687-4.125-2.742-1.037-5.416-1.47-8.313-1.875v-1c8.283-1.657 13.067.84 20 5"/><path fill="#5A3F3B" d="m231 265 2 3 2.5 2.5c2.5 2.5 2.5 2.5 4.5 5.5-4.517-.531-7.42-2.234-11-5l-1-3z"/><path fill="#9B8383" d="M267 133v3h-4v2l2 1h-6v-3l-4-1c4.177-1.591 7.532-2.213 12-2"/><path fill="#464646" d="M419 107c4.773 7.159 5.492 15.594 5 24-2.354-3.53-2.658-6.586-3.125-10.687l-.262-2.127A776 776 0 0 1 420 113h-2z"/><path fill="#876965" d="M221 298c5.394-.274 8.52-.36 13 3l-1 2c-10.558-.964-10.558-.964-15-2v-1c6.75-.125 6.75-.125 9 1v-2h-6z"/><path fill="#8C898F" d="M169 264h1q.795 3.873 1.563 7.75l.458 2.21c.725 3.706 1.077 6.433-.021 10.04q-1.257-3.654-2.5-7.312l-.723-2.092C167.767 271.61 167 269.173 167 266z"/><path fill="#545487" d="M119 273h-2l-1 9-3-1v-3h-2v-4l-4-1c8.571-1.286 8.571-1.286 12 0"/><path fill="#443E40" d="M337 145c.684 1.703.684 1.703 1 4-1.215 2.36-1.215 2.36-2.937 4.75l-1.715 2.422L332 158l-2-2q.891-2.193 1.813-4.375l1.019-2.46C334 147 334 147 337 145"/><path fill="#2B2022" d="M293 101h1l1 8 4 1h-4v2l4 1-5 1v-6h-2l-1 3c-.687-1.625-.687-1.625-1-4 1.438-3.25 1.438-3.25 3-6"/><path fill="#A48280" d="M241 306h2c1.104 3.313 1.133 5.827 1.125 9.313l.008 3.363c-.128 3.192-.535 6.19-1.133 9.324h-1c-.082-4.161.018-7.947 1-12h-2z"/><path fill="#58423C" d="M179 198c5.875 4.585 10.858 9.787 15 16-3 0-3 0-5.7-2.555q-1.506-1.649-2.988-3.32l-1.548-1.684C180 202.271 180 202.271 180 200l-2-1z"/><path fill="#888181" d="M330 157c0 3 0 3-2.187 5.48L325 165.188l-2.812 2.73L320 170l-3-3 1.703-1.27a542 542 0 0 0 7.047-5.417l2.422-1.887z"/><path fill="#493F40" d="m323 155 2 1a176 176 0 0 0 5 1c-5.143 5.571-5.143 5.571-9 6v-2l-2-2h2v-2h2z"/><path fill="#4E2C32" d="M201 349c3 2 3 2 3.766 4.863l.484 3.45.516 3.425c.218 3.04.003 5.333-.766 8.262h-1l-2-16-4 4c.75-5.75.75-5.75 3-8"/><path fill="#8C797C" d="M304 142c2-.043 4-.04 6 0l1 1c-.176 2.69-.618 5.329-1 8h-3l-1-7h-2z"/><path fill="#291817" d="M143 112h1v15h-3l-1.437-3.375c-.816-1.892-1.642-3.782-2.563-5.625l6 1z"/><path fill="#2C0D13" d="M189 427c2.705 4.058 5 8.049 5 13-3 0-3 0-4.707-1.176-1.79-2.524-1.412-3.993-.98-7.012l.363-2.73z"/><path fill="#404040" d="M118 71h1v10h-2l-5 13h-1c.371-5.689 2.2-9.608 4.855-14.621C117.187 76.61 117.76 74.058 118 71"/><path fill="#87787D" d="M255 296c3.227 6.153 3.136 12.199 3 19-2-1-2-1-2.621-2.61-.513-3.234-.472-6.367-.441-9.64l.027-3.828z"/><path fill="#7B6560" d="m206 253 1 3h13l-4 2-2 3c-3.46-1.25-6.147-2.675-9-5z"/><path fill="#4E484A" d="m122 106 1 2 3-1c-.363 2.687-.669 4.559-2.312 6.75-1.887 1.397-3.39 1.854-5.688 2.25z"/><path fill="#515151" d="M380 39c3.68 1.536 5.988 3.782 8.75 6.625l2.422 2.477L393 50l-2 3-1.39-1.61c-3.903-4.495-3.903-4.495-8.048-8.765C380 41 380 41 380 39"/><path fill="#252525" d="M103 14c6.875 1.875 6.875 1.875 8 3 2.67.141 5.324.042 8 0v2h-6v2c-3.999-.615-6.804-2.603-10-5z"/><path fill="#2E2E2E" d="M104 0c2.813-.312 2.813-.312 6 0 1.875 2.5 1.875 2.5 3 5l-3 4z"/><path fill="#28262B" d="m166 268 2 1c.96 2.879 1.229 4.43.086 7.277-1.204 3.019-1.717 5.828-2.211 9.036l-.508 3.238L165 291h-1c.964-15.745.964-15.745 2-23"/><path fill="#442F2A" d="M241 211c3.42 3.42 3.953 7.72 4.125 12.438L245 226h2l-1 4-1-3h-2z"/><path fill="#4A4848" d="m151 190 2 1a778 778 0 0 1-5.187 4.875l-1.463 1.395c-2.944 2.726-5.52 4.511-9.35 5.73 1.138-3.413 1.903-3.92 4.75-5.937l2.172-1.567L146 194a505 505 0 0 0 5-4"/><path fill="#6B5355" d="M290 131v3l2 1c-1 1-1 1-3.285 1.098l-2.777-.036-2.786-.027L281 136c.844-1.953.844-1.953 2-4 2.43-.73 4.472-1 7-1"/><path fill="#1C1314" d="M304 106c2 3 2 3 1.625 5.688L305 114l-1-2h-9v-2c3.371-1.498 5.204-2 9-2z"/><path fill="#595758" d="M122 82h2c1.707 5.897-.048 10.42-2 16h-1a995 995 0 0 1-.062-5.75l-.036-3.234c.083-2.55.352-4.595 1.098-7.016"/><path fill="#373737" d="M416 20q2.197 1.36 4.375 2.75c.812.51 1.624 1.02 2.46 1.547 2.25 1.77 3.124 3.072 4.165 5.703l-1.562-.812c-3.102-1.511-6.26-2.844-9.438-4.188z"/><path fill="#50507D" d="m154 266 3 1c-.557 3.344-1.352 6.033-3 9h-4c1.11-3.487 2.263-6.775 4-10"/><path fill="#2D1B1E" d="m289 114 3 2c-1.133 4.444-2.283 8.264-5 12h-2l4-12-2-1z"/><path fill="#342C2E" d="M125 110c2 3 2 3 1.75 6-.75 3-.75 3-2.75 6l-2-4h-2v-3l4-1z"/><path fill="#363134" d="M186 77h2c-1.556 3.82-3.956 6.26-7 9h-2l-1 4-3-1q2.679-3.008 5.375-6l1.54-1.734c1.32-1.46 2.699-2.868 4.085-4.266"/><path fill="#0F0F0F" d="M367 17q2.407.212 4.813.438c.893.08 1.786.162 2.707.246C377 18 377 18 380 19v2c-3.547 1.251-5.723.723-9.25-.437l-2.703-.872L366 19z"/><path fill="#2A1C21" d="m246 410 3 1v1l2-1c-.187 1.875-.187 1.875-1 4-2.437 1.188-2.437 1.188-5 2l-2 1-2-5 1.938-.375L245 412z"/><path fill="#3E1F25" d="M194 365h3c.043 2 .04 4 0 6l-1 1a70 70 0 0 0-.562 4.063L195 380c-2.414-4.345-3.445-7.428-2.062-12.312z"/><path fill="#DAC8C3" d="M133 144c3.215 1.408 5.322 3.103 7.75 5.625l1.86 1.914L144 153l-1 2a521 521 0 0 1-5-3.812l-2.812-2.145L133 147z"/><path fill="#85787C" d="m161 102-1 5-2.75.875c-2.572.89-4.863 1.84-7.25 3.125l2.5-2.312c2.84-2.442 2.84-2.442 2.5-5.688 2-1 2-1 6-1"/><path fill="#D3BFBA" d="M173 190c3.214.288 4.093 1.1 6.36 3.504l2.39 3.059c.8 1.011 1.598 2.023 2.422 3.066L186 202c-3 0-3 0-4.719-1.355-3.256-3.35-6.12-6.45-8.281-10.645"/><path fill="#4D4039" d="M150 140c2.186 2.186 2.683 3.539 3.625 6.438.26.782.52 1.564.79 2.37C155 151 155 151 155 154h-2v-2h-2a824 824 0 0 1-1.062-5.437l-.598-3.06L149 141z"/><path fill="#C5BFC2" d="M187 120h3c-.524 3.776-1.327 6.224-4 9h-3c1.059-3.403 2.009-6.014 4-9"/><path fill="#574C50" d="M232 91h1v6l-1.875.75c-2.476 1.456-3.076 2.628-4.125 5.25l-2-1 1-6 2 1 1.938-3z"/><path fill="#474546" d="M127 68c1.766 3.531.098 7.488-.625 11.25-.632 2.706-.632 2.706.625 4.75l-2 2c-1.816-2.671-1.998-4.03-1.812-7.312.864-3.924 2.11-7.064 3.812-10.688"/><path fill="#605E5F" d="M217 69c1.26 2.98.991 4.023-.187 7.125-1.828 2.9-2.608 3.873-5.813 4.875h-3l1.46-1.863 1.915-2.45 1.898-2.425A101 101 0 0 0 217 69"/><path fill="#B0ABAC" d="M118 116h2c1.322 2.645 1.097 4.678 1.063 7.625l-.028 3.04L121 129c-2-1-2-1-3-4a81 81 0 0 1-.062-4.687l.027-2.45z"/><path fill="#353233" d="m399 1-1 1 5 2c-3 2-3 2-6.562 1.313C393 4 393 4 391 1c3.053-.981 4.947-.981 8 0"/><path fill="#565455" d="M363 0h14v1c-8.088 1.606-15.757 2.263-24 2V2h10z"/><path fill="#1B181B" d="M248 415c-1.555 3.817-4.036 6.192-7 9l-2-4c6.59-5 6.59-5 9-5"/><path fill="#8A6B69" d="m237 289 5 1v2l1.938.75C246 294 246 294 247 298l-11-7z"/><path fill="#CFC5C2" d="M124 122h2c1.203 2.405 1.1 3.95 1.063 6.625l-.028 2.477L127 133l-2 1c-1.262-2.525-1.099-4.312-1.062-7.125l.027-2.758z"/><path fill="#9B8D8B" d="M196 119c6.26 1.043 6.26 1.043 9 3 .61 2.578.61 2.578 1 5q-2.507-1.426-5-2.875l-2.812-1.617L196 121z"/><path fill="#5E4F4E" d="M194 117c5.496-.55 9.465 1.034 14 4l1 2c-3.735-.498-5.812-.875-9-3a128 128 0 0 0-7-1z"/><path fill="#251C21" d="m231 86 3 2c.188 3.125.188 3.125 0 6l-2-2-4 6c-1.214-3.642-.667-4.332.938-7.687l1.152-2.45z"/><path fill="#646464" d="M408 65q1.758 1.176 3.5 2.375l1.969 1.336L415 70v2l-3.875-.312-2.18-.176C407 71 407 71 405 68z"/><path fill="#533338" d="m228 413 2 2c-.375 3.125-.375 3.125-1 6l2 1-5 8c-1.282-2.564-.806-3.506-.125-6.25.854-3.57 1.566-7.12 2.125-10.75"/><path fill="#674744" d="M208 314q3.156.212 6.313.438c1.171.08 2.343.162 3.55.246C221 315 221 315 224 316v2h-3l-1 2v-3l-2.625.125c-3.499-.13-6.12-.885-9.375-2.125z"/><path fill="#777" d="M404 12c2.625 1.438 2.625 1.438 5 3l-1 4c-2.437-.75-2.437-.75-5-2-.812-2.125-.812-2.125-1-4z"/><path fill="#636363" d="M407 0h12v3c-7.5.375-7.5.375-12-3"/><path fill="#503B3E" d="m249 407 2 2-2 4h-3l2-2-2-1-1 3-3 1-1-5 3 2 1-2c2.063-1.125 2.063-1.125 4-2"/><path fill="#5D403C" d="M211 297c5.369.499 10.692 1.022 16 2v2l-16-2z"/><path fill="#171216" d="M254 276c2.77 2.77 2.398 4.765 2.625 8.625l.227 3.602L257 291h-2c-1.001-3.31-1.104-6.3-1.062-9.75l.027-2.984z"/><path fill="#5F4C4D" d="M314 163v2l3 2c-2.75.917-4.36 1.109-7.187 1.063L306 168c4.625-5 4.625-5 8-5"/><path fill="#322526" d="m312 143 1 3 2 1-5 8c-1.015-4.061-1.054-4.67.438-8.25l.87-2.14z"/><path fill="#524340" d="M126 121h2c2.248 4.497 2.167 8.079 2 13l-2 1z"/><path fill="#181215" d="M308 121h1c.125 6.625.125 6.625-1 10h2v-4l2 1c-.75 2.375-.75 2.375-2 5l-4 2z"/><path fill="#D9CAC6" d="M128 119h6v5h-5z"/><path fill="#454444" d="m140 75 2 1-8 11-3-1z"/><path fill="#4F4B4C" d="M277 76h2v17h-1V83h-2z"/><path fill="#A1807D" d="m238 384 1 2 2.813-.125C245 386 245 386 248 388l-1 4-3-1v-4l-3.312.125C237 387 237 387 234 385z"/><path fill="#1D1820" d="M260 317h1l.438 3.438c.174 3.37.174 3.37 1.562 4.562.25 3.375.25 3.375 0 7l-3 3z"/><path fill="#1F1E4B" d="m151 275 3 2-2 2v4c-2.5 1.75-2.5 1.75-5 3q.425-2.19.875-4.375l.492-2.46C149 277 149 277 151 275"/><path fill="#958385" d="M206 118a100 100 0 0 1 5 0c1 1 1 1 1.063 3.563L212 124h-5v-3z"/><path fill="#342726" d="M196.25 106.313 199 107l-4 2v3c-2.437-.375-2.437-.375-5-1l-1-2c2.637-2.536 3.509-3.047 7.25-2.687"/><path fill="#897D81" d="M231 97c.873 2.445 1.102 3.677.313 6.188C230 105 230 105 227.875 105.75L226 106c1.625-6.75 1.625-6.75 5-9"/><path fill="#2C2B42" d="m100 273 2 1c-.75 1.938-.75 1.938-2 4-2.125.75-2.125.75-4 1v6h-2c-.375-3.187-.375-3.187 0-7 1.812-2.14 3.658-3.39 6-5"/><path fill="#614B45" d="M208 196h13l-1 2c-2.75.917-4.36 1.109-7.187 1.063L209 199z"/><path fill="#766364" d="M227.563 145.938 230 146c-3.49 4.004-5.65 5.627-11 6 6-6 6-6 8.563-6.062"/><path fill="#6A5D5F" d="M159 101h3l1 10-2-1 1-2h-3v2l-4 1c1.375-2.5 1.375-2.5 3-5h2l1-4z"/><path fill="#23191E" d="m227 434 2 1-1 1.938c-1.073 1.83-1.073 1.83-1 3.062h-8l2-4 3 1z"/><path fill="#1E1E5C" d="M131 275c0 3.196-.547 4.417-2 7.188l-1.125 2.167L127 286l-4-2z"/><path fill="#433E39" d="M178 220h1v20h-1l-.184-2.957-.254-3.856c-.08-1.264-.162-2.529-.246-3.832-.188-3.347-.188-3.347-1.316-6.355z"/><path fill="#261D1F" d="M303 119c1.906 3.212 2.223 5.539 2.125 9.25l-.055 2.703L305 133h-2c-.913-4.97-.913-9.03 0-14"/><path fill="#574649" d="M286 116h3c-.61 3.558-1.578 6.683-3 10-1.125-3.75-1.125-3.75 0-6l-3 1c1.875-3.875 1.875-3.875 3-5"/><path fill="#C6BCBE" d="M129 109c3.161 1.37 3.993 1.99 6 5l-1 3-1.312-1.437c-1.711-1.8-1.711-1.8-4.688-2.563z"/><path fill="#7C5F5C" d="m199 293 8 1-2 3c-3.125.188-3.125.188-6 0z"/><path fill="#AFA79E" d="M179 223c1.67 3.338 2.874 6.462 4 10l-3 1-1 2z"/><path fill="#674E4A" d="M240 196q2.188.212 4.375.438l2.46.246C249 197 249 197 251 198v2c-7.625-.875-7.625-.875-11-2z"/><path fill="#9C8684" d="M223 151c-1.37 3.161-1.99 3.993-5 6l-3-2c2-3 2-3 4-3.687 2-.313 2-.313 4-.313"/><path fill="#676366" d="m183 127 1 4-9 1-1-3c6.75-2 6.75-2 9-2"/><path fill="#1A1619" d="M188 125c2.063.438 2.063.438 4 1l-2 5h-4c.875-4.875.875-4.875 2-6"/><path fill="#120C0C" d="M304 114h3v8l-3 1z"/><path fill="#300F10" d="M236 400h2l2 9h-3z"/><path fill="#DEC6C4" d="M213 261c6.875 3.75 6.875 3.75 8 6-4.128-.607-7.332-2.038-11-4z"/><path fill="#7B6669" d="M291 121c1.6 3.2.032 5.723-1 9h-3l-2 1c1.37-3.995 3.257-6.8 6-10"/><path fill="#7B7378" d="M159 87h2c-.125 2.25-.125 2.25-1 5-3.062 2.313-3.062 2.313-6 4 1.242-3.44 2.557-6.252 5-9"/><path fill="#7E7C7C" d="M380 4h8v2l-2 2c-2.625-.375-2.625-.375-5-1z"/><path fill="#331F21" d="M257 398c1.044 3.133.934 3.99 0 7l-5 1c1.186-3.375 2.276-5.647 5-8"/><path fill="#BCA09D" d="M201.848 298.902 208 299l1 2h-7l-.375 2.438L201 306l-2 1q-.061-3.5 0-7c1-1 1-1 2.848-1.098"/><path fill="#B39FA0" d="m189 288 2 2a236 236 0 0 1-1 7l1 3h-2c-1.495-2.99-1.116-5.7-1-9z"/><path fill="#151438" d="m150 283 1 3c-1.5 2.125-1.5 2.125-4 4-2.89-.254-5.216-1.072-8-2v-1l3.813-.312c2.792-.337 3.931-.488 6.187-2.25z"/><path fill="#927A75" d="m240 198 9 2v1l-8 2z"/><path fill="#7B6C6F" d="m186.688 137.375 3.011.336L192 138v1c-9.41 1.333-9.41 1.333-14 0 3.549-2.366 4.576-2.109 8.688-1.625"/><path fill="#958083" d="m301 122 1 3-9 1 1-3z"/><path fill="#B5A6A7" d="M186 110c3.719.507 6.735 1.116 10 3v2l-10-3z"/><path fill="#6D6A6B" d="m130 87 3 1-5 8c-1-4-1-4 .438-6.75z"/><path fill="#B6B6B9" d="M164 272h1v10l-3-1c-.125-3.375-.125-3.375 0-7z"/><path fill="#6E6CA7" d="m134 271-2 4h-4v-2l-4-2c7.75-1.125 7.75-1.125 10 0"/><path fill="#503D3A" d="m299 172 2 3-3 6h5v1h-6c-.687-1.625-.687-1.625-1-4 1.438-3.25 1.438-3.25 3-6"/><path fill="#2F181B" d="m255 129 2 4-2 3h-3c.75-4.75.75-4.75 3-7"/><path fill="#988888" d="m167 121 1 2-8 1v3l-2-1c.313-1.937.313-1.937 1-4 2.928-.976 4.956-1.082 8-1"/><path fill="#A39796" d="M175 106h4l1 3c-1 1-1 1-4.062 1.063L173 110z"/><path fill="#2F2D2E" d="M120 94c2.83 3.996 1.762 7.427 1 12h-2c-1.369-4.517-.47-7.588 1-12"/><path fill="#323232" d="M409 71h7l2 4-6 2-1-2 4-1-6-2z"/><path fill="#231E1F" d="m262 255 2 3c-5.75 5-5.75 5-8 5 1.443-3.366 3.333-5.51 6-8"/><path fill="#CDBAB5" d="M128 137c4.875 4.75 4.875 4.75 6 7l-2 2-5-7z"/><path fill="#1A1A1A" d="M379 122h2l3 9-2 2c-3-6.5-3-6.5-3-11"/><path fill="#523E42" d="M271 122c-2.872 2.703-4.31 3.948-8.312 4.25L260 126l1-2h4v-2c3.75-1.125 3.75-1.125 6 0"/><path fill="#493A38" d="M166 117c-2.332 1.206-4.496 2.165-7 3v6l-3-3c2.167-6.036 3.715-6.137 10-6"/><path fill="#1D1212" d="M292 108h2v7l-2 1c-1.125-2.312-1.125-2.312-2-5z"/><path fill="#6F6F6F" d="M415 104c2.203 4.406 3.11 6.975 3 12-2.29-2.29-2.524-3.455-3.187-6.562l-.543-2.442L414 105z"/><path fill="#403437" d="m167 99 4 1h-2v5l-4 1a85 85 0 0 1 2-7"/><path fill="#5D5D5D" d="m406 86 5 4-1 5c-2.503-2.938-3.47-5.179-4-9"/><path fill="#5F575C" d="M207 82h1c.2 3.716.152 4.772-2 8h-2l-1-3c1.875-2.687 1.875-2.687 4-5"/><path fill="#616161" d="M334 0h7l1 4c-3.688-.498-5.605-1.1-8-4"/><path fill="#505073" d="M117 285h2v2l2 1-5 6c-1.255-3.766-.37-5.372 1-9"/><path fill="#9E9BA0" d="M169 264h1v10c-2.463-2.463-2.998-4.707-4-8h2z"/><path fill="#3E2A28" d="M216 147h2l1 3c-1.937 3.188-1.937 3.188-4 6-1.033-2.788-1.045-3.868-.062-6.75z"/><path fill="#604845" d="M263 136h4v2l8 1v1c-8.571.286-8.571.286-12-2z"/><path fill="#675151" d="m141 127 2 3-1 3c-4.875-1.75-4.875-1.75-6-4l4 1z"/><path fill="#463C3F" d="M293 101c.688 1.625.688 1.625 1 4-1.437 3.25-1.437 3.25-3 6-.687-1.625-.687-1.625-1-4 1.438-3.25 1.438-3.25 3-6"/><path fill="#524445" d="m191 98 2 2c-1.75 3.875-1.75 3.875-4 5v-2h-6v-1l2.875-.875c3.177-.893 3.177-.893 5.125-3.125"/><path fill="#181415" d="M439 290h1c.37 6.523.37 6.523-1.5 8.938L437 300c-1-2-1-2-.441-3.945l.878-2.18.872-2.195z"/><path fill="#1B1C20" d="m161 252 1 3 2 1a91 91 0 0 1-4 4h-2c.256-2.343.593-4.678 1-7z"/><path fill="#DECCC6" d="M170 182c2.252 2.688 3.882 4.646 5 8h-3a101 101 0 0 1-3-6z"/><path fill="#BBB0B6" d="m174 133 7 4v1c-3.375.125-3.375.125-7 0l-2-2h2z"/><path fill="#8B7978" d="M136 119c1.938.563 1.938.563 4 2 .75 3.625.75 3.625 1 7-4.429-5.143-4.429-5.143-5-9"/><path fill="#1A1A1A" d="M335 117h7l-1.687.75c-2.713 1.466-4.949 3.28-7.313 5.25z"/><path fill="#7C6E70" d="M159 108h3c-1 3-1 3-2.812 4.25-2.527.866-3.71.635-6.188-.25l6-2z"/><path fill="#4C4345" d="m148 96 2 1c.188 2.875.188 2.875 0 6l-3 2c-.625-3.375-.625-3.375-1-7z"/><path fill="#776060" d="M246 283c2.622 1.049 3.794 1.65 5.25 4.125L252 289h-4z"/><path fill="#957D77" d="M224 200v2c-6.75-.75-6.75-.75-9-3 3.2-1.6 5.723-.032 9 1"/><path fill="#957C7C" d="M294 141h6l-1 4h-4z"/><path fill="#2C2C2C" d="M383 131c3.375 4.5 3.375 4.5 4 8l-3 2z"/><path fill="#BFB2AD" d="M127 127h1v11h-2c-1.6-4.002-.293-7.046 1-11"/><path fill="#928489" d="M216 119h3v2l4 1c-2.375 1.063-2.375 1.063-5 2l-2-1z"/><path fill="#7E6D6E" d="M303 118v8l-2-3c-2.06-.724-2.06-.724-4-1 4.875-4 4.875-4 6-4"/><path fill="#ACA0A4" d="M228 104h2c-.375 2.938-.375 2.938-1 6l-2 1c-.625-2.375-.625-2.375-1-5z"/><path fill="#2C2024" d="M193 93h5c-2.625 4.875-2.625 4.875-6 6l1.063-1.875L194 95z"/><path fill="#9C827F" d="M241 279h4l2 4c-3 0-3 0-6-1z"/><path fill="#CEB1AD" d="m213 279 6 3v2l-9-3z"/><path fill="#5C5350" d="M251 273c2.354 2.55 2.983 3.71 3.188 7.25L254 283c-3.006-3.006-2.596-5.824-3-10"/><path fill="#1F1A1B" d="m252 272 4 1v5l-3-1z"/><path fill="#221815" d="m296 179 1 3h2l-1 3v-2l-6 2z"/><path fill="#353535" d="M118 71h1v10l-4-1 2-3c.39-1.99.732-3.99 1-6"/><path fill="#595859" d="M117 57c2.125 3.188 2.502 5.265 3 9h-3z"/></svg>